<svg xmlns="http://www.w3.org/2000/svg" viewBox="2.75 2.75 26.5 26.5" width="32" height="32" fill="none">
  <path fill="#ffffff" d="M16.02 3C9.4 3 4.02 8.37 4.02 15c0 2.23.6 4.32 1.65 6.12L4 29l8.06-1.62A11.9 11.9 0 0 0 16.02 27C22.64 27 28 21.63 28 15S22.64 3 16.02 3Z"/>
  <path fill="#25d366" d="M16.02 4.6C10.3 4.6 5.64 9.25 5.64 15c0 1.98.56 3.83 1.53 5.4l.26.42-.98 3.58 3.68-.96.4.24a10.3 10.3 0 0 0 5.49 1.58c5.72 0 10.38-4.65 10.38-10.36S21.74 4.6 16.02 4.6Z"/>
  <path fill="#ffffff" d="M12.1 9.7c-.24-.53-.5-.54-.73-.55h-.62c-.22 0-.57.08-.87.4-.3.32-1.14 1.1-1.14 2.7 0 1.58 1.16 3.1 1.32 3.32.16.22 2.25 3.6 5.56 4.9 2.75 1.08 3.31.87 3.9.81.6-.06 1.93-.79 2.2-1.55.27-.76.27-1.4.19-1.55-.08-.14-.3-.22-.62-.38-.32-.16-1.93-.95-2.23-1.06-.3-.11-.52-.16-.73.16-.22.32-.85 1.06-1.04 1.28-.19.22-.38.24-.7.08-.32-.16-1.36-.5-2.6-1.6-.96-.86-1.6-1.92-1.79-2.24-.19-.32-.02-.5.14-.66.14-.14.32-.38.48-.57.16-.19.22-.32.32-.54.11-.22.05-.4-.03-.56-.08-.16-.71-1.77-1-2.42Z"/>
</svg>
